<?xml version="1.0" standalone="no"?>
<!DOCTYPE svg PUBLIC "-//W3C//DTD SVG 20010904//EN"
  "http://www.w3.org/TR/2001/REC-SVG-20010904/DTD/svg10.dtd">
<svg version="1.0" xmlns="http://www.w3.org/2000/svg"
     width="1024.000000pt" height="1024.000000pt" viewBox="0 0 1024.000000 1024.000000"
     preserveAspectRatio="xMidYMid meet">
  <metadata>
    Created by potrace 1.11, written by Peter Selinger 2001-2013
  </metadata>
  <g transform="translate(0.000000,1024.000000) scale(0.100000,-0.100000)"
     fill="#000000" stroke="none">
    <path d="M2257 10014 c-1 -1 -33 -4 -72 -8 -38 -3 -81 -8 -95 -10 -14 -3 -41
-7 -60 -10 -70 -11 -237 -55 -323 -86 -190 -67 -387 -173 -561 -303 -82 -62
-311 -284 -356 -346 -14 -18 -37 -47 -51 -65 -56 -68 -169 -256 -218 -361 -95
-203 -149 -388 -185 -637 -8 -54 -19 -228 -16 -263 1 -16 2 -34 2 -40 -1 -9
-1 -288 -1 -325 0 -8 0 -101 -1 -206 -1 -105 0 -195 1 -200 1 -5 1 -13 0 -19
-1 -8 -1 -237 0 -540 0 -5 0 -118 0 -250 0 -132 0 -247 0 -255 0 -8 0 -55 -1
-105 -1 -100 -2 -297 -1 -320 1 -8 1 -21 2 -27 0 -7 0 -99 -1 -204 -1 -105 0
-195 1 -200 1 -5 1 -13 0 -19 -1 -8 -1 -237 0 -540 0 -5 0 -118 0 -250 0 -132
0 -247 0 -255 0 -8 0 -55 -1 -105 -1 -100 -2 -297 -1 -320 1 -8 1 -21 2 -27 0
-7 0 -99 -1 -204 -1 -105 0 -195 1 -200 1 -5 1 -13 0 -19 -1 -5 -1 -127 -1
-270 1 -143 1 -264 1 -270 0 -5 0 -116 0 -245 -1 -308 8 -491 26 -555 4 -11 7
-31 8 -45 5 -57 76 -313 105 -375 5 -11 19 -45 31 -75 86 -211 264 -474 440
-649 243 -243 562 -435 864 -521 44 -12 91 -26 105 -30 14 -5 43 -12 65 -16
22 -4 45 -8 50 -10 82 -19 255 -31 480 -33 116 -1 215 -2 220 -2 6 0 64 0 130
0 66 0 127 0 135 0 8 0 40 1 70 1 30 1 57 1 60 0 14 -4 80 -4 80 0 0 3 168 4
372 2 205 -2 378 -3 383 -3 752 -2 4241 10 4265 15 19 3 62 11 95 16 333 58
654 202 930 419 39 30 117 102 175 160 108 109 130 134 177 199 16 21 34 44
41 52 83 93 258 439 303 600 7 25 14 50 15 55 12 38 43 169 48 201 3 22 8 50
11 64 3 14 8 52 11 85 9 87 11 5938 2 6042 -10 117 -18 174 -39 264 -6 26 -12
53 -13 60 -21 110 -106 331 -182 477 -180 341 -478 651 -809 839 -46 27 -224
113 -232 113 -3 0 -19 7 -36 15 -41 19 -210 74 -250 80 -17 3 -33 8 -37 10 -4
2 -22 7 -41 10 -19 3 -59 10 -89 15 -30 5 -80 12 -110 16 -47 6 -5916 14
-5923 8z"/>
  </g>
</svg>
